<?xml version="1.0" encoding="utf-8"?>
<!-- Generator: Adobe Illustrator 24.0.1, SVG Export Plug-In . SVG Version: 6.00 Build 0)  -->
<svg version="1.1" id="Layer_1" xmlns="http://www.w3.org/2000/svg" xmlns:xlink="http://www.w3.org/1999/xlink" x="0px" y="0px"
	 viewBox="0 0 170 194" style="enable-background:new 0 0 170 194;" xml:space="preserve">
<style type="text/css">
	.st0{fill:url(#SVGID_1_);}
	.st1{fill:#FFFFFF;}
	.st2{opacity:0.46;fill:url(#SVGID_2_);enable-background:new    ;}
	.st3{opacity:0.46;fill:url(#SVGID_3_);enable-background:new    ;}
</style>
<g>
	<g>
		<g transform="matrix(1, 0, 0, 1, -60.14, -64.83)">
			
				<linearGradient id="SVGID_1_" gradientUnits="userSpaceOnUse" x1="-797.2916" y1="335.9538" x2="-796.3056" y2="335.9508" gradientTransform="matrix(146.51 0 0 -151.7554 116886.8438 51137.8594)">
				<stop  offset="0" style="stop-color:#DF4CD0"/>
				<stop  offset="0.382" style="stop-color:#AA59E1"/>
				<stop  offset="0.63" style="stop-color:#9F7DEF"/>
				<stop  offset="1" style="stop-color:#56EEFB"/>
			</linearGradient>
			<path class="st0" d="M105,231.1c-1,0-1.8-0.7-2-1.6l-27.2-90.9c-0.3-0.9,0-2,0.8-2.6l71.1-56.2c0.7-0.6,1.8-0.6,2.5,0l71.1,56.2
				c0.8,0.6,1.1,1.7,0.8,2.6l-27.2,90.9c-0.1,0.4-0.3,0.7-0.5,1c-0.1,0.1-0.2,0.2-0.3,0.3c-0.3,0.2-0.7,0.4-1.1,0.4H105z
				 M149.6,198.6L149.6,198.6C149.6,198.6,149.6,198.6,149.6,198.6l0.1,0.1l0.3,2l3.5,24.4h35.7c1,0,1.8-0.7,2-1.6l11.6-38.9
				l-20.5-10.4l-1.7-0.8c0,0,0,0,0,0l0,0c0,0,0,0,0-0.1v0c0,0,0,0,0,0c0,0,0.1,0,0.1,0l1.8,0.3l22.5,4l11.1-37.1
				c0.3-0.9,0-2-0.8-2.6l-30.4-24l-15.6,18.2l-1.2,1.4c0,0-0.1,0.1-0.1,0.1c0,0-0.1,0-0.1,0c-0.1-0.1-0.1-0.2,0-0.2l0.9-1.3
				c-0.1-0.1-0.1-0.3,0-0.5l10.5-22.1l-29-22.9c-0.7-0.6-1.8-0.6-2.5,0l-30.5,24.1l11,21.7l0.9,1.7v0c0,0,0,0,0,0.1v0.1
				c0,0-0.1,0-0.1,0c0,0-0.1,0-0.1,0l-1.3-1.4l-16.1-17.7l-28.9,22.8c-0.8,0.6-1.1,1.7-0.8,2.6l11.7,39l22.2-4.7h0.1
				c0.1,0,0.3,0.1,0.3,0.2c0,0,0,0,0,0l1.4-0.6h0.1c0.1,0,0.1,0,0.1,0.1c0,0.1,0,0.2-0.1,0.2l-1.6,0.9l-20.3,11.2l11,36.9
				c0.2,0.9,1.1,1.6,2,1.6h37.8l2.7-24.4l0.2-2C149.5,198.7,149.5,198.7,149.6,198.6L149.6,198.6
				C149.5,198.6,149.5,198.6,149.6,198.6L149.6,198.6z M148.9,225.1h1.9l-1.3-22.9L148.9,225.1z M94.3,181.9l0.6,2l19.7-8.5
				L94.3,181.9z M203.6,182l0.6-2l-20.5-5.7L203.6,182z M113.6,113.2l13.5,17.8l-12-19.1L113.6,113.2z M169.8,130.3l13-18.3
				l-1.6-1.2L169.8,130.3z M149,191.4L118.2,209l5.8-37c0-0.2,0-0.4-0.2-0.5l-24.7-26.2l34.1-5.4c0.2,0,0.3-0.2,0.4-0.3l15.3-33.6
				l15.3,33.7c0.1,0.2,0.2,0.3,0.4,0.3l34.1,5.4l-24.7,26.2c-0.1,0.1-0.2,0.3-0.2,0.5l5.8,37L149,191.4z M149.3,185.3l30.2,23.4
				l-11.2-38.5c-0.1-0.2,0-0.5,0.2-0.7l29.8-24.1l-37.1-0.4c-0.2,0-0.4-0.2-0.5-0.4l-11.8-38.3l-11.8,38.3c-0.1,0.2-0.3,0.4-0.5,0.4
				l-37.1,0.4l29.9,24.1c0.2,0.2,0.3,0.4,0.2,0.7l-11.2,38.5l30.2-23.4c0.1-0.1,0.2-0.1,0.3-0.1
				C149.1,185.2,149.2,185.2,149.3,185.3z"/>
		</g>
		<g transform="matrix(1, 0, 0, 1, -60.14, -64.83)">
			<path class="st1" d="M105,231.1c-1,0-1.8-0.7-2-1.6l-27.2-90.9c-0.3-0.9,0-2,0.8-2.6l71.1-56.2c0.7-0.6,1.8-0.6,2.5,0l71.1,56.2
				c0.8,0.6,1.1,1.7,0.8,2.6l-27.2,90.9c-0.1,0.4-0.3,0.7-0.5,1c-0.1,0.1-0.2,0.2-0.3,0.3c-0.3,0.2-0.7,0.4-1.1,0.4H105z
				 M149.6,198.6L149.6,198.6C149.6,198.6,149.6,198.6,149.6,198.6l0.1,0.1l0.3,2l3.5,24.4h35.7c1,0,1.8-0.7,2-1.6l11.6-38.9
				l-20.5-10.4l-1.7-0.8c0,0,0,0,0,0l0,0c0,0,0,0,0-0.1v0c0,0,0,0,0,0c0,0,0.1,0,0.1,0l1.8,0.3l22.5,4l11.1-37.1
				c0.3-0.9,0-2-0.8-2.6l-30.4-24l-15.6,18.2l-1.2,1.4c0,0-0.1,0.1-0.1,0.1c0,0-0.1,0-0.1,0c-0.1-0.1-0.1-0.2,0-0.2l0.9-1.3
				c-0.1-0.1-0.1-0.3,0-0.5l10.5-22.1l-29-22.9c-0.7-0.6-1.8-0.6-2.5,0l-30.5,24.1l11,21.7l0.9,1.7v0c0,0,0,0,0,0.1v0.1
				c0,0-0.1,0-0.1,0c0,0-0.1,0-0.1,0l-1.3-1.4l-16.1-17.7l-28.9,22.8c-0.8,0.6-1.1,1.7-0.8,2.6l11.7,39l22.2-4.7h0.1
				c0.1,0,0.3,0.1,0.3,0.2c0,0,0,0,0,0l1.4-0.6h0.1c0.1,0,0.1,0,0.1,0.1c0,0.1,0,0.2-0.1,0.2l-1.6,0.9l-20.3,11.2l11,36.9
				c0.2,0.9,1.1,1.6,2,1.6h37.8l2.7-24.4l0.2-2C149.5,198.7,149.5,198.7,149.6,198.6L149.6,198.6
				C149.5,198.6,149.5,198.6,149.6,198.6L149.6,198.6z M148.9,225.1h1.9l-1.3-22.9L148.9,225.1z M94.3,181.9l0.6,2l19.7-8.5
				L94.3,181.9z M203.6,182l0.6-2l-20.5-5.7L203.6,182z M113.6,113.2l13.5,17.8l-12-19.1L113.6,113.2z M169.8,130.3l13-18.3
				l-1.6-1.2L169.8,130.3z M149,191.4L118.2,209l5.8-37c0-0.2,0-0.4-0.2-0.5l-24.7-26.2l34.1-5.4c0.2,0,0.3-0.2,0.4-0.3l15.3-33.6
				l15.3,33.7c0.1,0.2,0.2,0.3,0.4,0.3l34.1,5.4l-24.7,26.2c-0.1,0.1-0.2,0.3-0.2,0.5l5.8,37L149,191.4z M149.3,185.3l30.2,23.4
				l-11.2-38.5c-0.1-0.2,0-0.5,0.2-0.7l29.8-24.1l-37.1-0.4c-0.2,0-0.4-0.2-0.5-0.4l-11.8-38.3l-11.8,38.3c-0.1,0.2-0.3,0.4-0.5,0.4
				l-37.1,0.4l29.9,24.1c0.2,0.2,0.3,0.4,0.2,0.7l-11.2,38.5l30.2-23.4c0.1-0.1,0.2-0.1,0.3-0.1
				C149.1,185.2,149.2,185.2,149.3,185.3z"/>
		</g>
	</g>
	<g transform="translate(-2.467 -29.144)">
		
			<linearGradient id="SVGID_2_" gradientUnits="userSpaceOnUse" x1="-854.9821" y1="300.1866" x2="-854.0091" y2="300.2386" gradientTransform="matrix(147 0 0 -166 125695.8203 49960.0469)">
			<stop  offset="0" style="stop-color:#B14CDF;stop-opacity:0.439"/>
			<stop  offset="1" style="stop-color:#56EEFB;stop-opacity:0.38"/>
		</linearGradient>
		<ellipse class="st2" cx="86.8" cy="124.6" rx="73.5" ry="83"/>
		
			<linearGradient id="SVGID_3_" gradientUnits="userSpaceOnUse" x1="-854.9821" y1="300.1866" x2="-854.0091" y2="300.2386" gradientTransform="matrix(147 0 0 -166 125695.8203 49960.0469)">
			<stop  offset="0" style="stop-color:#B14CDF;stop-opacity:0.439"/>
			<stop  offset="1" style="stop-color:#56EEFB;stop-opacity:0.38"/>
		</linearGradient>
		<ellipse class="st3" cx="86.8" cy="124.6" rx="73.5" ry="83"/>
	</g>
</g>
</svg>
