<svg xmlns="http://www.w3.org/2000/svg" xmlns:xlink="http://www.w3.org/1999/xlink" width="274" height="342" viewBox="0 0 274 342">
  <defs>
    <filter id="STAR_METAVERSE" x="0" y="224" width="274" height="118" filterUnits="userSpaceOnUse">
      <feOffset input="SourceAlpha"/>
      <feGaussianBlur stdDeviation="3" result="blur"/>
      <feFlood flood-color="#b14cdf"/>
      <feComposite operator="in" in2="blur"/>
      <feComposite in="SourceGraphic"/>
    </filter>
    <linearGradient id="linear-gradient" y1="0.386" x2="0.986" y2="0.389" gradientUnits="objectBoundingBox">
      <stop offset="0" stop-color="#df4cd0"/>
      <stop offset="0.382" stop-color="#aa59e1"/>
      <stop offset="0.63" stop-color="#9f7def"/>
      <stop offset="1" stop-color="#56eefb"/>
    </linearGradient>
    <filter id="logo" x="50.676" y="25.989" width="170.5" height="175.757" filterUnits="userSpaceOnUse">
      <feOffset input="SourceAlpha"/>
      <feGaussianBlur stdDeviation="4" result="blur-2"/>
      <feFlood flood-color="#9c1aff" flood-opacity="0.922"/>
      <feComposite operator="in" in2="blur-2"/>
      <feComposite in="SourceGraphic"/>
    </filter>
    <filter id="logo-2" x="50.676" y="25.989" width="170.5" height="175.757" filterUnits="userSpaceOnUse">
      <feOffset input="SourceAlpha"/>
      <feGaussianBlur stdDeviation="3" result="blur-3"/>
      <feFlood flood-color="#fff" flood-opacity="0.2" result="color"/>
      <feComposite operator="out" in="SourceGraphic" in2="blur-3"/>
      <feComposite operator="in" in="color"/>
      <feComposite operator="in" in2="SourceGraphic"/>
    </filter>
    <linearGradient id="linear-gradient-2" y1="0.5" x2="0.973" y2="0.448" gradientUnits="objectBoundingBox">
      <stop offset="0" stop-color="#b14cdf" stop-opacity="0.439"/>
      <stop offset="1" stop-color="#56eefb" stop-opacity="0.38"/>
    </linearGradient>
  </defs>
  <g id="brand-mark" transform="translate(60.143 64.834)">
    <g transform="matrix(1, 0, 0, 1, -60.14, -64.83)" filter="url(#STAR_METAVERSE)">
      <text id="STAR_METAVERSE-2" data-name="STAR
METAVERSE" transform="translate(137 267)" fill="#fff" font-size="45" font-family="Oxstars-Regular, Oxstars"><tspan x="-55" y="0">STAR</tspan><tspan x="-127" y="54">METAVERSE</tspan></text>
    </g>
    <g data-type="innerShadowGroup">
      <g transform="matrix(1, 0, 0, 1, -60.14, -64.83)" filter="url(#logo)">
        <path id="logo-3" data-name="logo" d="M29.289,151.757a2.151,2.151,0,0,1-2.022-1.6L.1,59.217a2.433,2.433,0,0,1,.774-2.591L72,.444a1.987,1.987,0,0,1,2.5,0L145.62,56.626a2.433,2.433,0,0,1,.774,2.591l-27.166,90.938a2.364,2.364,0,0,1-.549.955,1.346,1.346,0,0,1-.333.285,1.989,1.989,0,0,1-1.142.362Zm44.562-32.482h.029a.119.119,0,0,1,.062.032v.081l.284,1.979,3.486,24.4H113.46a2.157,2.157,0,0,0,2.025-1.6L127.1,105.285,106.554,94.893,104.9,94.06c-.029-.008.007,0-.029-.04l-.033-.04a.079.079,0,0,1,0-.057v-.043c0-.045.033-.045.033-.045a.141.141,0,0,1,.085-.032l1.764.313,22.531,3.957,11.083-37.1a2.43,2.43,0,0,0-.776-2.606L109.144,34.333,93.567,52.523l-1.213,1.421a.151.151,0,0,1-.111.053.147.147,0,0,1-.094-.04.162.162,0,0,1,0-.217l.9-1.28A.45.45,0,0,1,93,51.992L103.46,29.843,74.5,6.964a1.992,1.992,0,0,0-2.5,0L41.5,31.06l11,21.663.894,1.745v.047a.079.079,0,0,1,0,.057v.1a.121.121,0,0,1-.081,0,.131.131,0,0,1-.088-.043l-1.289-1.41L35.8,35.558,6.938,58.365a2.43,2.43,0,0,0-.776,2.606L17.82,99.992l22.249-4.73h.09a.372.372,0,0,1,.317.187c.007,0,.017.019.017.019l1.36-.582h.052a.15.15,0,0,1,.137.1.159.159,0,0,1-.066.205l-1.641.9L20,107.281l11.019,36.882a2.157,2.157,0,0,0,2.025,1.6H70.812l2.732-24.4.218-1.971a.092.092,0,0,1,0-.043v-.045a.082.082,0,0,1,.052-.032Zm-.608,26.487H75.19L73.873,122.9ZM18.6,102.611l.61,2.039,19.671-8.467Zm109.275.074.6-2.02-20.451-5.7ZM37.889,33.911,51.422,51.719,39.466,32.665ZM94.1,51.02l13-18.3-1.582-1.249ZM73.25,112.031l-30.785,17.6L48.3,92.656a.621.621,0,0,0-.158-.526L23.44,65.946l34.132-5.393a.553.553,0,0,0,.414-.326L73.25,26.577l15.276,33.65a.554.554,0,0,0,.4.32l34.132,5.393-24.7,26.19a.621.621,0,0,0-.158.526l5.83,36.978Zm.317-6.081L103.811,129.4,92.657,90.869a.617.617,0,0,1,.223-.652L122.7,66.148l-37.145-.362a.55.55,0,0,1-.511-.409l-11.8-38.3-11.792,38.3a.546.546,0,0,1-.511.409L23.8,66.148l29.853,24.07a.619.619,0,0,1,.2.652L42.688,129.4,72.934,105.95a.511.511,0,0,1,.315-.111A.519.519,0,0,1,73.567,105.95Z" transform="translate(62.68 37.99)" fill="url(#linear-gradient)"/>
      </g>
      <g transform="matrix(1, 0, 0, 1, -60.14, -64.83)" filter="url(#logo-2)">
        <path id="logo-4" data-name="logo" d="M29.289,151.757a2.151,2.151,0,0,1-2.022-1.6L.1,59.217a2.433,2.433,0,0,1,.774-2.591L72,.444a1.987,1.987,0,0,1,2.5,0L145.62,56.626a2.433,2.433,0,0,1,.774,2.591l-27.166,90.938a2.364,2.364,0,0,1-.549.955,1.346,1.346,0,0,1-.333.285,1.989,1.989,0,0,1-1.142.362Zm44.562-32.482h.029a.119.119,0,0,1,.062.032v.081l.284,1.979,3.486,24.4H113.46a2.157,2.157,0,0,0,2.025-1.6L127.1,105.285,106.554,94.893,104.9,94.06c-.029-.008.007,0-.029-.04l-.033-.04a.079.079,0,0,1,0-.057v-.043c0-.045.033-.045.033-.045a.141.141,0,0,1,.085-.032l1.764.313,22.531,3.957,11.083-37.1a2.43,2.43,0,0,0-.776-2.606L109.144,34.333,93.567,52.523l-1.213,1.421a.151.151,0,0,1-.111.053.147.147,0,0,1-.094-.04.162.162,0,0,1,0-.217l.9-1.28A.45.45,0,0,1,93,51.992L103.46,29.843,74.5,6.964a1.992,1.992,0,0,0-2.5,0L41.5,31.06l11,21.663.894,1.745v.047a.079.079,0,0,1,0,.057v.1a.121.121,0,0,1-.081,0,.131.131,0,0,1-.088-.043l-1.289-1.41L35.8,35.558,6.938,58.365a2.43,2.43,0,0,0-.776,2.606L17.82,99.992l22.249-4.73h.09a.372.372,0,0,1,.317.187c.007,0,.017.019.017.019l1.36-.582h.052a.15.15,0,0,1,.137.1.159.159,0,0,1-.066.205l-1.641.9L20,107.281l11.019,36.882a2.157,2.157,0,0,0,2.025,1.6H70.812l2.732-24.4.218-1.971a.092.092,0,0,1,0-.043v-.045a.082.082,0,0,1,.052-.032Zm-.608,26.487H75.19L73.873,122.9ZM18.6,102.611l.61,2.039,19.671-8.467Zm109.275.074.6-2.02-20.451-5.7ZM37.889,33.911,51.422,51.719,39.466,32.665ZM94.1,51.02l13-18.3-1.582-1.249ZM73.25,112.031l-30.785,17.6L48.3,92.656a.621.621,0,0,0-.158-.526L23.44,65.946l34.132-5.393a.553.553,0,0,0,.414-.326L73.25,26.577l15.276,33.65a.554.554,0,0,0,.4.32l34.132,5.393-24.7,26.19a.621.621,0,0,0-.158.526l5.83,36.978Zm.317-6.081L103.811,129.4,92.657,90.869a.617.617,0,0,1,.223-.652L122.7,66.148l-37.145-.362a.55.55,0,0,1-.511-.409l-11.8-38.3-11.792,38.3a.546.546,0,0,1-.511.409L23.8,66.148l29.853,24.07a.619.619,0,0,1,.2.652L42.688,129.4,72.934,105.95a.511.511,0,0,1,.315-.111A.519.519,0,0,1,73.567,105.95Z" transform="translate(62.68 37.99)" fill="#fff"/>
      </g>
    </g>
    <g id="Glow" transform="translate(-2.467 -29.144)">
      <ellipse id="Ellipse_1" data-name="Ellipse 1" cx="73.5" cy="83" rx="73.5" ry="83" transform="translate(0.324 0.31)" opacity="0.46" fill="url(#linear-gradient-2)" style="mix-blend-mode: overlay;isolation: isolate"/>
      <ellipse id="Ellipse_2" data-name="Ellipse 2" cx="73.5" cy="83" rx="73.5" ry="83" transform="translate(0.324 0.31)" opacity="0.46" fill="url(#linear-gradient-2)" style="mix-blend-mode: screen;isolation: isolate"/>
    </g>
  </g>
</svg>
