<?xml version="1.0" encoding="utf-8"?>
<!-- Generator: Adobe Illustrator 24.0.1, SVG Export Plug-In . SVG Version: 6.00 Build 0)  -->
<svg version="1.1" id="Layer_1" xmlns="http://www.w3.org/2000/svg" xmlns:xlink="http://www.w3.org/1999/xlink" x="0px" y="0px"
	 viewBox="0 0 1108.4 1068.6" style="enable-background:new 0 0 1108.4 1068.6;" xml:space="preserve">
<style type="text/css">
	.st0{opacity:0.67;}
	.st1{fill:url(#Path_1_1_);}
	.st2{fill:url(#Path_2_1_);}
	.st3{fill:url(#Path_3_1_);}
</style>
<g id="star-token_1" class="st0">
	
		<linearGradient id="Path_1_1_" gradientUnits="userSpaceOnUse" x1="495.393" y1="-1.0609" x2="496.393" y2="-1.0609" gradientTransform="matrix(712 0 0 677 -352521.125 1278)">
		<stop  offset="0" style="stop-color:#F13FA8"/>
		<stop  offset="1" style="stop-color:#04A9FA"/>
	</linearGradient>
	<path id="Path_1" class="st1" d="M214.7,485.3l153-111l90,91l-81-98l-9-11l-11,8l-158,115l63,195l4,12l13-4l123-36l-126,25
		L214.7,485.3z M554.7,238.3l151,110l-59,114l68-107l8-12l-11-8l-157-114l-166,120l-11,8l8,12l72,104l-62-111L554.7,238.3z
		 M344.7,884.3l-58-179l115-59l-119,47l0,0l-13,6l4,12l60,187h219v-14l4-129l-15,129H344.7z M763.7,884.3h-187l-20-129l8,129l1,14
		h209l64-196l4-13l-14-5l-120-43l116,54L763.7,884.3z M743.7,358.3l-11-7l-9,11l-77,100l87-93l160,116l-58,177l-127-21l124,32l13,4
		l5-13l60-184L743.7,358.3z"/>
	
		<linearGradient id="Path_2_1_" gradientUnits="userSpaceOnUse" x1="495.8023" y1="-1.1035" x2="496.5004" y2="-0.3684" gradientTransform="matrix(989 0 0 940 -490139.4375 1311.125)">
		<stop  offset="0" style="stop-color:#F13FA8"/>
		<stop  offset="1" style="stop-color:#04A9FA"/>
	</linearGradient>
	<path id="Path_2" class="st2" d="M554.7,64.3l-495,359l189,581h611l189-581L554.7,64.3z M834.7,967.3h-561l-173-533l454-330
		l453,330L834.7,967.3z"/>
	
		<linearGradient id="Path_3_1_" gradientUnits="userSpaceOnUse" x1="495.0598" y1="-1.3622" x2="496.0598" y2="-1.3622" gradientTransform="matrix(523 0 0 498 -258623.5469 1254.6563)">
		<stop  offset="0" style="stop-color:#F13FA8"/>
		<stop  offset="1" style="stop-color:#04A9FA"/>
	</linearGradient>
	<path id="Path_3" class="st3" d="M815.7,517.3l-181-26l-80-164l-81,164l-181,26l131,128l-31,180l162-85l161,85l-31-180L815.7,517.3
		z M714.7,824.3l-160-115l-161,115l59-188l-158-117l197-2l63-187l62,187l197,1l-158,118L714.7,824.3z"/>
</g>
</svg>
