<svg xmlns="http://www.w3.org/2000/svg" xmlns:xlink="http://www.w3.org/1999/xlink" width="100.423" height="86.421" viewBox="0 0 100.423 86.421">
  <defs>
    <filter id="discord" x="0" y="0" width="100.423" height="86.421" filterUnits="userSpaceOnUse">
      <feOffset input="SourceAlpha"/>
      <feGaussianBlur stdDeviation="6" result="blur"/>
      <feFlood flood-color="#b14cdf"/>
      <feComposite operator="in" in2="blur"/>
      <feComposite in="SourceGraphic"/>
    </filter>
  </defs>
  <g transform="matrix(1, 0, 0, 1, 0, 0)" filter="url(#discord)">
    <path id="discord-2" data-name="discord" d="M54.572,4.223A52.056,52.056,0,0,0,41.281,0c-.573,1.047-1.241,2.454-1.7,3.574a48.274,48.274,0,0,0-14.73,0A38.382,38.382,0,0,0,23.126,0a51.883,51.883,0,0,0-13.3,4.233C1.414,17.084-.867,29.616.274,41.97a52.924,52.924,0,0,0,16.3,8.445A41.086,41.086,0,0,0,20.065,44.6a34.161,34.161,0,0,1-5.5-2.705c.461-.345.912-.707,1.348-1.078a37.2,37.2,0,0,0,32.591,0c.441.371.892.733,1.348,1.078a34.071,34.071,0,0,1-5.508,2.71,40.882,40.882,0,0,0,3.491,5.813A52.816,52.816,0,0,0,64.149,41.97,56.774,56.774,0,0,0,54.572,4.223ZM21.51,34.373c-3.182,0-5.792-3-5.792-6.661s2.554-6.666,5.792-6.666,5.847,3,5.792,6.666C27.306,31.369,24.747,34.373,21.51,34.373Zm21.4,0c-3.182,0-5.791-3-5.791-6.661s2.554-6.666,5.791-6.666,5.847,3,5.792,6.666C48.7,31.369,46.151,34.373,42.913,34.373Z" transform="translate(18 18)" fill="#fff"/>
  </g>
</svg>
