<svg xmlns="http://www.w3.org/2000/svg" xmlns:xlink="http://www.w3.org/1999/xlink" width="86" height="86" viewBox="0 0 86 86">
  <defs>
    <filter id="instagram" x="0" y="0" width="86" height="86" filterUnits="userSpaceOnUse">
      <feOffset input="SourceAlpha"/>
      <feGaussianBlur stdDeviation="6" result="blur"/>
      <feFlood flood-color="#b14cdf"/>
      <feComposite operator="in" in2="blur"/>
      <feComposite in="SourceGraphic"/>
    </filter>
  </defs>
  <g transform="matrix(1, 0, 0, 1, 0, 0)" filter="url(#instagram)">
    <path id="instagram-2" data-name="instagram" d="M253.234,14.723a18.337,18.337,0,0,0-1.162-6.069,12.25,12.25,0,0,0-2.883-4.428,12.254,12.254,0,0,0-4.428-2.883,18.313,18.313,0,0,0-6.07-1.162C236.027.06,235.175.031,228.385.031s-7.64.029-10.306.151a18.3,18.3,0,0,0-6.069,1.162,12.233,12.233,0,0,0-4.428,2.883A12.218,12.218,0,0,0,204.7,8.655a18.332,18.332,0,0,0-1.163,6.069c-.123,2.667-.151,3.517-.151,10.308s.029,7.641.151,10.308a18.318,18.318,0,0,0,1.163,6.067,12.776,12.776,0,0,0,7.311,7.312,18.3,18.3,0,0,0,6.069,1.162c2.667.123,3.517.151,10.306.151s7.642-.029,10.308-.151a18.313,18.313,0,0,0,6.07-1.162,12.776,12.776,0,0,0,7.311-7.312,18.322,18.322,0,0,0,1.162-6.067c.123-2.667.15-3.518.15-10.308s-.028-7.641-.15-10.308m-24.85,23.145a12.838,12.838,0,1,1,12.839-12.838,12.837,12.837,0,0,1-12.839,12.838M241.73,14.686a3,3,0,1,1,3-3,3,3,0,0,1-3,3m-5.012,10.345a8.333,8.333,0,1,1-8.334-8.333,8.333,8.333,0,0,1,8.334,8.333" transform="translate(-185.38 17.97)" fill="#fff" fill-rule="evenodd"/>
  </g>
</svg>
