<svg xmlns="http://www.w3.org/2000/svg" xmlns:xlink="http://www.w3.org/1999/xlink" width="96.453" height="86.421" viewBox="0 0 96.453 86.421">
  <defs>
    <filter id="telegram" x="0" y="0" width="96.453" height="86.421" filterUnits="userSpaceOnUse">
      <feOffset input="SourceAlpha"/>
      <feGaussianBlur stdDeviation="6" result="blur"/>
      <feFlood flood-color="#b14cdf"/>
      <feComposite operator="in" in2="blur"/>
      <feComposite in="SourceGraphic"/>
    </filter>
  </defs>
  <g transform="matrix(1, 0, 0, 1, 0, 0)" filter="url(#telegram)">
    <path id="telegram-2" data-name="telegram" d="M1343.4,6007.349a1.3,1.3,0,0,0-.879-.969,4.494,4.494,0,0,0-2.379.17s-52.968,19.25-55.994,21.381c-.651.46-.87.726-.978,1.04a1.8,1.8,0,0,0,1.106,2.187l13.652,4.5a1.487,1.487,0,0,0,.691-.04c3.106-1.984,31.246-19.952,32.87-20.555.257-.078.446.011.395.189-.649,2.3-25.09,24.271-25.09,24.271a1.215,1.215,0,0,0-.153.253l-.031-.019-1.274,13.691s-.533,4.193,3.615,0c2.927-2.96,5.759-5.434,7.176-6.641,4.694,3.278,9.746,6.9,11.926,8.8a3.758,3.758,0,0,0,2.765,1.079c2.069-.077,2.647-2.376,2.647-2.376s9.652-39.277,9.974-44.54c.031-.517.075-.843.079-1.2A4.452,4.452,0,0,0,1343.4,6007.349Z" transform="translate(-1265.07 -5988.26)" fill="#fff"/>
  </g>
</svg>
